<?xml version="1.0" encoding="UTF-8"?>
<svg xmlns="http://www.w3.org/2000/svg" width="540" height="260" viewBox="0 0 430 207" fill="none">
  <defs>
    <filter id="th-shadow" x="-28%" y="-18%" width="156%" height="150%">
      <feDropShadow dx="0" dy="5" stdDeviation="7" flood-color="#000" flood-opacity="0.48"/>
    </filter>
    <filter id="hw-shadow" x="-28%" y="-18%" width="156%" height="150%">
      <feDropShadow dx="0" dy="5" stdDeviation="7" flood-color="#000" flood-opacity="0.48"/>
    </filter>
    <filter id="f-shadow" x="-25%" y="-15%" width="150%" height="145%">
      <feDropShadow dx="0" dy="5" stdDeviation="7" flood-color="#000" flood-opacity="0.55"/>
    </filter>
    <filter id="sh-shadow" x="-25%" y="-15%" width="150%" height="145%">
      <feDropShadow dx="0" dy="5" stdDeviation="7" flood-color="#3fb950" flood-opacity="0.18"/>
    </filter>
    <filter id="pr-shadow" x="-28%" y="-18%" width="156%" height="150%">
      <feDropShadow dx="0" dy="5" stdDeviation="7" flood-color="#5a3ab5" flood-opacity="0.22"/>
    </filter>
  </defs>

  <!-- unified ground shadow -->
  <ellipse cx="215" cy="200" rx="200" ry="7" fill="#000" opacity="0.12"/>

  <!-- === BACK ROW === -->

  <!-- thinking (back left) -->
  <g transform="translate(15,56) scale(0.48)">
    <circle cx="124" cy="44" r="18" fill="#12121e" stroke="#2a2a44" stroke-width="1.5" opacity="0.95"/>
    <circle cx="112" cy="64" r="6" fill="#12121e" stroke="#2a2a44" stroke-width="1" opacity="0.75"/>
    <circle cx="118" cy="56" r="3.5" fill="#12121e" stroke="#2a2a44" stroke-width="1" opacity="0.55"/>
    <g filter="url(#th-shadow)">
      <rect x="26" y="84" width="108" height="108" rx="32" fill="#e8a820" stroke="#a06800" stroke-width="1.5"/>
      <ellipse cx="80" cy="73" rx="48" ry="52" fill="#e8a820" stroke="#a06800" stroke-width="1.5"/>
    </g>
    <rect x="42" y="106" width="76" height="54" rx="9" fill="#120e00" stroke="#3a2a00" stroke-width="1.5"/>
    <rect x="50" y="114" width="50" height="3" rx="1.5" fill="#f0b429" opacity="0.9"/>
    <rect x="50" y="121" width="36" height="3" rx="1.5" fill="#f0b429" opacity="0.65"/>
    <rect x="50" y="128" width="44" height="3" rx="1.5" fill="#f0b429" opacity="0.45"/>
    <rect x="28" y="59" width="104" height="26" rx="13" fill="#12121e" opacity="0.9"/>
    <circle cx="57" cy="72" r="17" fill="#080e18" stroke="#2a3545" stroke-width="2"/>
    <circle cx="57" cy="72" r="12" fill="#121e30"/>
    <circle cx="57" cy="72" r="7" fill="#0c1520"/>
    <circle cx="57" cy="67" r="4" fill="#060d18"/>
    <circle cx="55" cy="66" r="1.3" fill="white" opacity="0.95"/>
    <circle cx="103" cy="72" r="17" fill="#080e18" stroke="#2a3545" stroke-width="2"/>
    <circle cx="103" cy="72" r="12" fill="#121e30"/>
    <circle cx="103" cy="72" r="7" fill="#0c1520"/>
    <circle cx="103" cy="67" r="4" fill="#060d18"/>
    <circle cx="101" cy="66" r="1.3" fill="white" opacity="0.95"/>
    <rect x="68" y="69" width="24" height="6" rx="3" fill="#12121e"/>
    <line x1="66" y1="93" x2="94" y2="93" stroke="#7a5000" stroke-width="2.5" stroke-linecap="round"/>
    <line x1="80" y1="21" x2="80" y2="41" stroke="#b07208" stroke-width="3.5" stroke-linecap="round"/>
    <circle cx="80" cy="17" r="7" fill="#f0b429">
      <animate attributeName="opacity" values="0.4;1;0.4" dur="2.6s" repeatCount="indefinite"/>
    </circle>
    <circle cx="80" cy="17" r="3" fill="#ffd97d"/>
    <path d="M 26 120 Q 10 136 16 158" stroke="#c07d0a" stroke-width="13" fill="none" stroke-linecap="round"/>
    <circle cx="16" cy="161" r="9" fill="#a86800" stroke="#7a5000" stroke-width="1"/>
    <path d="M 134 120 Q 150 136 144 158" stroke="#c07d0a" stroke-width="13" fill="none" stroke-linecap="round"/>
    <circle cx="144" cy="161" r="9" fill="#a86800" stroke="#7a5000" stroke-width="1"/>
    <rect x="50" y="183" width="24" height="22" rx="9" fill="#b07208" stroke="#7a5000" stroke-width="1"/>
    <rect x="86" y="183" width="24" height="22" rx="9" fill="#b07208" stroke="#7a5000" stroke-width="1"/>
    <rect x="46" y="196" width="30" height="11" rx="5.5" fill="#12121e"/>
    <rect x="84" y="196" width="30" height="11" rx="5.5" fill="#12121e"/>
  </g>

  <!-- hello (back right) -->
  <g transform="translate(345,60) scale(0.48)">
    <g filter="url(#hw-shadow)">
      <rect x="26" y="76" width="108" height="108" rx="32" fill="#e8a820" stroke="#a06800" stroke-width="1.5"/>
      <ellipse cx="80" cy="65" rx="48" ry="52" fill="#e8a820" stroke="#a06800" stroke-width="1.5"/>
    </g>
    <rect x="42" y="98" width="76" height="54" rx="9" fill="#071510" stroke="#1e3a22" stroke-width="1.5"/>
    <rect x="50" y="106" width="38" height="3" rx="1.5" fill="#3fb950" opacity="0.9"/>
    <rect x="50" y="113" width="54" height="3" rx="1.5" fill="#3fb950" opacity="0.6"/>
    <rect x="50" y="120" width="30" height="3" rx="1.5" fill="#f0b429" opacity="0.8"/>
    <rect x="50" y="143" width="7" height="3" rx="1" fill="#3fb950">
      <animate attributeName="opacity" values="1;0;1" dur="1.1s" repeatCount="indefinite"/>
    </rect>
    <circle cx="106" cy="102" r="9" fill="#071a0d" stroke="#1e4a25" stroke-width="1.5"/>
    <path d="M 101 106 Q 106 97 111 106 Q 106 111 101 106 Z" fill="#6db33f"/>
    <rect x="28" y="51" width="104" height="26" rx="13" fill="#12121e" opacity="0.9"/>
    <circle cx="57" cy="64" r="17" fill="#080e18" stroke="#2a3545" stroke-width="2"/>
    <circle cx="57" cy="64" r="12" fill="#121e30"/>
    <circle cx="57" cy="64" r="7" fill="#0c1520"/>
    <circle cx="53" cy="60" r="3.5" fill="white" opacity="0.7"/>
    <circle cx="57" cy="65" r="4" fill="#060d18"/>
    <circle cx="55" cy="63" r="1.4" fill="white" opacity="0.95"/>
    <circle cx="103" cy="64" r="17" fill="#080e18" stroke="#2a3545" stroke-width="2"/>
    <circle cx="103" cy="64" r="12" fill="#121e30"/>
    <circle cx="103" cy="64" r="7" fill="#0c1520"/>
    <circle cx="99" cy="60" r="3.5" fill="white" opacity="0.7"/>
    <circle cx="103" cy="65" r="4" fill="#060d18"/>
    <circle cx="101" cy="63" r="1.4" fill="white" opacity="0.95"/>
    <rect x="68" y="61" width="24" height="6" rx="3" fill="#12121e"/>
    <path d="M 62 84 Q 80 98 98 84" stroke="#7a5000" stroke-width="2.5" fill="none" stroke-linecap="round"/>
    <line x1="80" y1="13" x2="80" y2="33" stroke="#b07208" stroke-width="3.5" stroke-linecap="round"/>
    <circle cx="80" cy="9" r="7" fill="#3fb950">
      <animate attributeName="opacity" values="1;0.3;1" dur="1.8s" repeatCount="indefinite"/>
    </circle>
    <circle cx="80" cy="9" r="3.5" fill="#a0ffa0"/>
    <path d="M 26 108 Q 2 88 8 62" stroke="#c07d0a" stroke-width="13" fill="none" stroke-linecap="round"/>
    <circle cx="8" cy="59" r="9" fill="#a86800" stroke="#7a5000" stroke-width="1">
      <animateTransform attributeName="transform" type="translate" values="0,0; 3,-4; 0,0; -3,-4; 0,0" dur="1.2s" repeatCount="indefinite"/>
    </circle>
    <path d="M 134 112 Q 154 126 150 148" stroke="#c07d0a" stroke-width="13" fill="none" stroke-linecap="round"/>
    <circle cx="150" cy="151" r="9" fill="#a86800" stroke="#7a5000" stroke-width="1"/>
    <rect x="50" y="175" width="24" height="22" rx="9" fill="#b07208" stroke="#7a5000" stroke-width="1"/>
    <rect x="86" y="175" width="24" height="22" rx="9" fill="#b07208" stroke="#7a5000" stroke-width="1"/>
    <rect x="46" y="188" width="30" height="11" rx="5.5" fill="#12121e"/>
    <rect x="84" y="188" width="30" height="11" rx="5.5" fill="#12121e"/>
  </g>

  <!-- === MID ROW === -->

  <!-- field (mid left) -->
  <g transform="translate(78,38) scale(0.58)">
    <g filter="url(#f-shadow)">
      <rect x="26" y="76" width="108" height="108" rx="32" fill="#345da0" stroke="#0d2550" stroke-width="1.5"/>
      <ellipse cx="80" cy="65" rx="48" ry="52" fill="#345da0" stroke="#0d2550" stroke-width="1.5"/>
    </g>
    <rect x="24" y="24" width="112" height="9" rx="4.5" fill="#0a1520"/>
    <rect x="36" y="6" width="88" height="20" rx="5" fill="#0a1520"/>
    <rect x="36" y="23" width="88" height="6" rx="1" fill="#162540"/>
    <rect x="42" y="98" width="76" height="54" rx="9" fill="#07101e" stroke="#162540" stroke-width="1.5"/>
    <rect x="50" y="106" width="38" height="3" rx="1.5" fill="#58a6ff" opacity="0.9"/>
    <rect x="50" y="113" width="54" height="3" rx="1.5" fill="#58a6ff" opacity="0.6"/>
    <rect x="50" y="120" width="30" height="3" rx="1.5" fill="#3fb950" opacity="0.85"/>
    <rect x="50" y="127" width="46" height="3" rx="1.5" fill="#58a6ff" opacity="0.5"/>
    <rect x="50" y="141" width="7" height="3" rx="1" fill="#58a6ff">
      <animate attributeName="opacity" values="1;0;1" dur="0.9s" repeatCount="indefinite"/>
    </rect>
    <circle cx="106" cy="102" r="9" fill="#07101e" stroke="#1a3a6a" stroke-width="1.5"/>
    <text x="106" y="106" text-anchor="middle" font-family="monospace" font-size="8" font-weight="bold" fill="#58a6ff">007</text>
    <rect x="28" y="51" width="104" height="26" rx="13" fill="#08101a" opacity="0.92"/>
    <circle cx="57" cy="64" r="17" fill="#080e18" stroke="#1e2d3d" stroke-width="2"/>
    <circle cx="57" cy="64" r="12" fill="#121e30"/>
    <circle cx="57" cy="64" r="7" fill="#0c1520"/>
    <circle cx="53" cy="60" r="3" fill="white" opacity="0.55"/>
    <circle cx="57" cy="65" r="3.5" fill="#060d18"/>
    <circle cx="55" cy="63" r="1.2" fill="white" opacity="0.9"/>
    <circle cx="103" cy="64" r="17" fill="#080e18" stroke="#1e2d3d" stroke-width="2"/>
    <circle cx="103" cy="64" r="12" fill="#121e30"/>
    <circle cx="103" cy="64" r="7" fill="#0c1520"/>
    <circle cx="99" cy="60" r="3" fill="white" opacity="0.55"/>
    <circle cx="103" cy="65" r="3.5" fill="#060d18"/>
    <circle cx="101" cy="63" r="1.2" fill="white" opacity="0.9"/>
    <rect x="68" y="62" width="24" height="6" rx="3" fill="#08101a"/>
    <path d="M 65 86 Q 80 90 95 86" stroke="#0d2550" stroke-width="2.5" fill="none" stroke-linecap="round"/>
    <line x1="80" y1="6" x2="80" y2="24" stroke="#1a2e4a" stroke-width="2.5" stroke-linecap="round"/>
    <path d="M 26 112 Q 4 124 8 146" stroke="#1a3a6a" stroke-width="13" fill="none" stroke-linecap="round"/>
    <rect x="-3" y="138" width="20" height="16" rx="3" fill="#0a1520" stroke="#2a3a5a" stroke-width="1.5"/>
    <rect x="1" y="135" width="12" height="5" rx="2" fill="none" stroke="#2a3a5a" stroke-width="1.5"/>
    <path d="M 134 112 Q 156 124 152 146" stroke="#1a3a6a" stroke-width="13" fill="none" stroke-linecap="round"/>
    <circle cx="152" cy="149" r="9" fill="#0a1520" stroke="#2a3a5a" stroke-width="1"/>
    <rect x="148" y="141" width="8" height="12" rx="2" fill="#060e1a"/>
    <line x1="152" y1="139" x2="156" y2="133" stroke="#58a6ff" stroke-width="1.5" stroke-linecap="round" opacity="0.7"/>
    <rect x="50" y="175" width="24" height="22" rx="9" fill="#1a3a6a" stroke="#0d2550" stroke-width="1"/>
    <rect x="86" y="175" width="24" height="22" rx="9" fill="#1a3a6a" stroke="#0d2550" stroke-width="1"/>
    <rect x="46" y="188" width="30" height="11" rx="5.5" fill="#080e18"/>
    <rect x="84" y="188" width="30" height="11" rx="5.5" fill="#080e18"/>
  </g>

  <!-- shipped (mid right) -->
  <g transform="translate(258,38) scale(0.58)">
    <g filter="url(#sh-shadow)">
      <rect x="26" y="76" width="108" height="108" rx="32" fill="#1c9050" stroke="#0a5020" stroke-width="1.5"/>
      <ellipse cx="80" cy="65" rx="48" ry="52" fill="#1c9050" stroke="#0a5020" stroke-width="1.5"/>
    </g>
    <polygon points="80,4 36,23 124,23" fill="#0a140a"/>
    <rect x="36" y="21" width="88" height="11" rx="2" fill="#070e07"/>
    <line x1="120" y1="23" x2="130" y2="37" stroke="#f0b429" stroke-width="2.5"/>
    <circle cx="130" cy="40" r="5" fill="#f0b429"/>
    <rect x="42" y="98" width="76" height="54" rx="9" fill="#041208" stroke="#155020" stroke-width="1.5"/>
    <rect x="50" y="106" width="38" height="3" rx="1.5" fill="#3fb950" opacity="0.9"/>
    <rect x="50" y="113" width="54" height="3" rx="1.5" fill="#3fb950" opacity="0.8"/>
    <rect x="50" y="120" width="30" height="3" rx="1.5" fill="#3fb950" opacity="0.9"/>
    <text x="80" y="136" text-anchor="middle" font-family="monospace" font-size="8.5" fill="#3fb950">PASS</text>
    <circle cx="106" cy="102" r="10" fill="#041208" stroke="#3fb950" stroke-width="2"/>
    <path d="M 100 102 L 104 107 L 113 96" stroke="#3fb950" stroke-width="2.5" fill="none" stroke-linecap="round" stroke-linejoin="round"/>
    <rect x="28" y="51" width="104" height="26" rx="13" fill="#070e07" opacity="0.92"/>
    <circle cx="57" cy="64" r="17" fill="#080e10" stroke="#124020" stroke-width="2"/>
    <circle cx="57" cy="64" r="12" fill="#121e30"/>
    <path d="M 49 68 Q 57 58 65 68" stroke="#3fb950" stroke-width="2.5" fill="none" stroke-linecap="round"/>
    <circle cx="53" cy="60" r="2" fill="white" opacity="0.5"/>
    <circle cx="103" cy="64" r="17" fill="#080e10" stroke="#124020" stroke-width="2"/>
    <circle cx="103" cy="64" r="12" fill="#121e30"/>
    <path d="M 95 68 Q 103 58 111 68" stroke="#3fb950" stroke-width="2.5" fill="none" stroke-linecap="round"/>
    <circle cx="99" cy="60" r="2" fill="white" opacity="0.5"/>
    <rect x="68" y="62" width="24" height="6" rx="3" fill="#070e07"/>
    <path d="M 60 84 Q 80 100 100 84" stroke="#0a4020" stroke-width="3" fill="none" stroke-linecap="round"/>
    <line x1="80" y1="4" x2="80" y2="24" stroke="#3fb950" stroke-width="3" stroke-linecap="round" opacity="0.6"/>
    <path d="M 26 108 Q 0 82 10 58" stroke="#0d6a2a" stroke-width="13" fill="none" stroke-linecap="round"/>
    <path d="M 134 108 Q 160 82 150 58" stroke="#0d6a2a" stroke-width="13" fill="none" stroke-linecap="round"/>
    <circle cx="10" cy="55" r="9" fill="#0a5020" stroke="#0a4018" stroke-width="1"/>
    <circle cx="150" cy="55" r="9" fill="#0a5020" stroke="#0a4018" stroke-width="1"/>
    <rect x="50" y="175" width="24" height="22" rx="9" fill="#0d5a28" stroke="#0a4018" stroke-width="1"/>
    <rect x="86" y="175" width="24" height="22" rx="9" fill="#0d5a28" stroke="#0a4018" stroke-width="1"/>
    <rect x="46" y="188" width="30" height="11" rx="5.5" fill="#070e07"/>
    <rect x="84" y="188" width="30" height="11" rx="5.5" fill="#070e07"/>
  </g>

  <!-- === FRONT ROW === -->

  <!-- university (center front) -->
  <g transform="translate(155,12) scale(0.72)">
    <g filter="url(#pr-shadow)">
      <rect x="26" y="76" width="108" height="108" rx="32" fill="#7a5ad8" stroke="#3a1a8a" stroke-width="1.5"/>
      <ellipse cx="80" cy="65" rx="48" ry="52" fill="#7a5ad8" stroke="#3a1a8a" stroke-width="1.5"/>
    </g>
    <polygon points="80,4 36,22 124,22" fill="#0d0820"/>
    <rect x="36" y="20" width="88" height="11" rx="2" fill="#08050f"/>
    <line x1="120" y1="22" x2="130" y2="38" stroke="#f0b429" stroke-width="2.5" stroke-linecap="round"/>
    <circle cx="130" cy="41" r="5" fill="#f0b429"/>
    <rect x="42" y="98" width="76" height="54" rx="9" fill="#0a0520" stroke="#2a1050" stroke-width="1.5"/>
    <rect x="50" y="106" width="40" height="3" rx="1.5" fill="#bc8cff" opacity="0.9"/>
    <rect x="50" y="113" width="56" height="3" rx="1.5" fill="#bc8cff" opacity="0.6"/>
    <rect x="50" y="120" width="32" height="3" rx="1.5" fill="#f0b429" opacity="0.8"/>
    <rect x="50" y="127" width="48" height="3" rx="1.5" fill="#bc8cff" opacity="0.45"/>
    <circle cx="106" cy="102" r="9" fill="#0a0520" stroke="#5a3ab5" stroke-width="1.5"/>
    <text x="106" y="107" text-anchor="middle" font-family="Georgia,serif" font-size="11" font-weight="bold" fill="#bc8cff">U</text>
    <rect x="28" y="51" width="104" height="26" rx="13" fill="#0d0820" opacity="0.92"/>
    <circle cx="57" cy="64" r="17" fill="#0a0520" stroke="#2a1050" stroke-width="2"/>
    <circle cx="57" cy="64" r="12" fill="#100a20"/>
    <circle cx="57" cy="65" r="5" fill="#050210"/>
    <path d="M 42 60 Q 57 55 72 60" stroke="#0d0820" stroke-width="5" fill="none"/>
    <circle cx="55" cy="63" r="1.3" fill="white" opacity="0.8"/>
    <circle cx="103" cy="64" r="17" fill="#0a0520" stroke="#2a1050" stroke-width="2"/>
    <circle cx="103" cy="64" r="12" fill="#100a20"/>
    <circle cx="103" cy="65" r="5" fill="#050210"/>
    <path d="M 88 60 Q 103 55 118 60" stroke="#0d0820" stroke-width="5" fill="none"/>
    <circle cx="101" cy="63" r="1.3" fill="white" opacity="0.8"/>
    <rect x="68" y="61" width="24" height="6" rx="3" fill="#0d0820"/>
    <path d="M 66 85 Q 80 91 94 85" stroke="#3a1a7a" stroke-width="2.5" fill="none" stroke-linecap="round"/>
    <line x1="80" y1="4" x2="80" y2="22" stroke="#3a1a7a" stroke-width="2.5" stroke-linecap="round" opacity="0.4"/>
    <path d="M 26 112 Q 6 128 12 152" stroke="#5a3ab5" stroke-width="13" fill="none" stroke-linecap="round"/>
    <rect x="0" y="146" width="18" height="24" rx="2.5" fill="#0d0820" stroke="#2a1050" stroke-width="1.5"/>
    <rect x="2" y="148" width="14" height="20" rx="1.5" fill="#080515"/>
    <line x1="9" y1="148" x2="9" y2="168" stroke="#3a1a7a" stroke-width="0.8"/>
    <path d="M 134 112 Q 154 128 148 152" stroke="#5a3ab5" stroke-width="13" fill="none" stroke-linecap="round"/>
    <rect x="142" y="146" width="18" height="24" rx="2.5" fill="#0d0820" stroke="#2a1050" stroke-width="1.5"/>
    <rect x="144" y="148" width="14" height="20" rx="1.5" fill="#080515"/>
    <line x1="151" y1="148" x2="151" y2="168" stroke="#3a1a7a" stroke-width="0.8"/>
    <rect x="50" y="175" width="24" height="22" rx="9" fill="#5a3ab5" stroke="#3a1a8a" stroke-width="1"/>
    <rect x="86" y="175" width="24" height="22" rx="9" fill="#5a3ab5" stroke="#3a1a8a" stroke-width="1"/>
    <rect x="46" y="188" width="30" height="11" rx="5.5" fill="#0d0820"/>
    <rect x="84" y="188" width="30" height="11" rx="5.5" fill="#0d0820"/>
  </g>
</svg>
